inDegrees=no
num_controls=7
num_derivatives=13
num_iterations=41
num_multipliers=7
num_parameters=0
num_slacks=7
num_states=26
objective=0.426969
objective_accelerations=0.058252
objective_balance=0.001119
objective_effort=0.015348
objective_height=0.346289
objective_ligament=0.005961
solver_duration=628.552923
status=Solve_Succeeded
success=true
DataType=double
version=3
OpenSimVersion=4.5
endheader
time	/jointset/ground_pelvis/pelvis_tilt/value	/jointset/ground_pelvis/pelvis_tx/value	/jointset/ground_pelvis/pelvis_ty/value	/jointset/hip_l/hip_flexion_l/value	/jointset/hip_l/hip_adduction_l/value	/jointset/hip_l/hip_rotation_l/value	/jointset/back/lumbar_extension/value	/jointset/patellofemoral_l/patellar_flexion_l/value	/jointset/knee_l/knee_flexion_l/value	/jointset/knee_l/knee_adduction_l/value	/jointset/knee_l/knee_rotation_l/value	/jointset/ankle_l/ankle_angle_l/value	/jointset/subtalar_l/subtalar_angle_l/value	/jointset/ground_pelvis/pelvis_tilt/speed	/jointset/ground_pelvis/pelvis_tx/speed	/jointset/ground_pelvis/pelvis_ty/speed	/jointset/hip_l/hip_flexion_l/speed	/jointset/hip_l/hip_adduction_l/speed	/jointset/hip_l/hip_rotation_l/speed	/jointset/back/lumbar_extension/speed	/jointset/patellofemoral_l/patellar_flexion_l/speed	/jointset/knee_l/knee_flexion_l/speed	/jointset/knee_l/knee_adduction_l/speed	/jointset/knee_l/knee_rotation_l/speed	/jointset/ankle_l/ankle_angle_l/speed	/jointset/subtalar_l/subtalar_angle_l/speed	/forceset/tau_hip_flexion_l	/forceset/tau_hip_adduction_l	/forceset/tau_hip_rotation_l	/forceset/tau_knee_flexion_l	/forceset/tau_ankle_angle_l	/forceset/tau_subtalar_angle_l	/forceset/tau_lumbar_extension	lambda_cid13_p0	lambda_cid13_p1	lambda_cid13_p2	lambda_cid13_p3	lambda_cid13_p4	lambda_cid13_p5	lambda_cid14_p0	/jointset/ground_pelvis/pelvis_tilt/accel	/jointset/ground_pelvis/pelvis_tx/accel	/jointset/ground_pelvis/pelvis_ty/accel	/jointset/hip_l/hip_flexion_l/accel	/jointset/hip_l/hip_adduction_l/accel	/jointset/hip_l/hip_rotation_l/accel	/jointset/back/lumbar_extension/accel	/jointset/patellofemoral_l/patellar_flexion_l/accel	/jointset/knee_l/knee_flexion_l/accel	/jointset/knee_l/knee_adduction_l/accel	/jointset/knee_l/knee_rotation_l/accel	/jointset/ankle_l/ankle_angle_l/accel	/jointset/subtalar_l/subtalar_angle_l/accel	gamma_cid13_p0	gamma_cid13_p1	gamma_cid13_p2	gamma_cid13_p3	gamma_cid13_p4	gamma_cid13_p5	gamma_cid14_p0
0.5	-0.2121334210485346	0.03563925083603058	0.7728649588129249	0.9800845570444555	-0.3632683394214242	-0.004463982741801632	-0.3993675803387705	0.9605283711265302	0.9605283711265828	-0.03117202056269921	-0.1744499445976953	0.3213481060991184	0.1670748080578464	-0.7320514597791405	-0.1703428434317717	-0.5227254382015832	2.371798279589998	0.03962978297336473	0.5281389717559583	-0.3114087010070927	2.005345187703388	2.005345187703391	0.3237793989661679	0.001244235625264651	0.5327090805420568	0.2811477004246415	-0.102183518152245	0.08041962639415216	-0.00225323554538685	-0.1967433775681048	0.008008496833945136	-0.01860813917267303	0.1150968573254244	-24.87939090558902	17.31481062493669	-8.612279795510842	1.558873699917105	-438.9227579022516	-23.32130085409529	-4.829417953944206	0.318257175040398	0.3479668969830799	-0.4853934407032692	-1.104493620014876	0.1016356945272314	-0.8059181731113905	1.371439397442441	-1.57909425107594	-1.579094251075956	-0.1517789345758834	-0.007052849108690112	-0.9516862667185318	0.06819879502031641	-4.83230404222538e-07	-9.709851761777343e-08	6.879689084066967e-06	3.951118927649996e-07	-1.383418189151832e-06	-1.218245025720182e-06	-8.276790572268426e-07
0.51	-0.219435881532444	0.0339536324246261	0.7676147650708935	1.003742124927669	-0.3628698001263284	0.0007839285619567746	-0.402413761231732	0.9804991796140192	0.9804991796140529	-0.02795261890335679	-0.1744375363806122	0.3266260360981781	0.1698848363134412	-0.7283292995099989	-0.1667484653062102	-0.5271906704547473	2.359370748994314	0.0400655004285943	0.5214209246777087	-0.2977817106792044	1.988533156800773	1.988533156800778	0.3200564897113816	0.001217565180517874	0.5228134776483944	0.2807964488763758	-0.1068107782290992	0.08148831408879319	-0.002791463556662388	-0.1994022103855916	0.006946344253172472	-0.01800962132648372	0.11869493073682	-25.42236002680364	17.35680723328904	-8.855264228542739	1.543819561322439	-442.2962108919742	-23.33036634776333	-4.204625314947122	0.4158718370578205	0.370114396552314	-0.4089639941738801	-1.363617815709173	0.0115812357314484	-0.6089012581106641	1.365193886440777	-1.774597499301703	-1.774597499301446	-0.4891297041340026	-0.002139925221778719	-1.018017444709197	-0.09685720858533725	-4.611561106622189e-07	3.142416169408416e-07	6.858904712633794e-06	4.44619170734445e-07	-1.325929035291829e-06	-7.857717516711527e-07	-8.014245880766968e-07
0.52	-0.2266977851368232	0.032304946019719	0.7623235438310203	1.027265070497651	-0.3624674953637374	0.005963828738342969	-0.4053222992142189	1.000293399794595	1.000293399794607	-0.02477176289319532	-0.1744257280245754	0.3318031060394993	0.1726893380377863	-0.7239400838725759	-0.1629564421322945	-0.5309309377699312	2.344873816944073	0.04038287647225326	0.5145367462822998	-0.2838801189121586	1.970027526320262	1.970027526320269	0.3160702691284347	0.001124263413204989	0.5125370689939681	0.2800423941746952	-0.1114380383059485	0.08255700178340707	-0.003329691567894367	-0.202061043203081	0.005884191672391455	-0.01741110348033651	0.1222930041482238	-25.96001575719557	17.38851192303398	-9.085911104720791	1.48458947693594	-445.5863648363313	-23.45677194619113	-3.629407271517143	0.4516682486967095	0.3874959066539315	-0.3404004531072373	-1.518373910926185	0.07796741221307533	-0.8391444365433499	1.426359685273972	-1.917814166655112	-1.917814166655108	-0.204441200208003	-0.02037911362204167	-1.027847418871352	-0.01236183566272988	-4.367998584935515e-07	6.698956464969403e-07	6.776839912150885e-06	4.832998345652775e-07	-1.258717979462728e-06	-3.60142574501067e-07	-7.744052463528589e-07
0.53	-0.2339127864187588	0.03069495366743433	0.7569985854316373	1.050633335616616	-0.3620621652845572	0.01107428521963764	-0.4080907947967643	1.019894213902842	1.019894213902864	-0.02163162895018652	-0.1744147631080018	0.3368754108397658	0.1754847436043058	-0.7189692894917551	-0.1590300214656805	-0.5339320598565193	2.328468963359852	0.04068682181616184	0.5074910729982476	-0.2698198560977934	1.949841904359855	1.949841904359861	0.3119642370274352	0.001046876826233763	0.5018380989740068	0.2789860096281305	-0.1159235473913764	0.08352078378449844	-0.003720676484282554	-0.2049442020963454	0.004669024379828949	-0.01700832978481401	0.1256944262987172	-26.58619000012489	17.53558531339635	-9.351926013500726	1.671722351719368	-449.0401284052794	-23.45315204243944	-3.102688687008816	0.533399786133797	0.3971168988381968	-0.260910431973107	-1.748122625101409	0.006076847428197056	-0.647521303485458	1.395730804461592	-2.112792813469247	-2.112792813469413	-0.5123915440006084	-0.003380600035460492	-1.103764707907536	-0.1611222504157309	-4.125892018610878e-07	9.846386930698067e-07	6.675688141528862e-06	5.157612280877273e-07	-1.191230869545129e-06	3.255298761646411e-08	-7.477908895989661e-07
